<svg xmlns="http://www.w3.org/2000/svg" preserveAspectRatio="none" viewBox="0 0 1440 320" transform="rotate(180)"><defs>
        <filter id="a" x="-50%" y="-50%" width="200%" height="200%">
            <feOffset dy="20" />
            <feGaussianBlur stdDeviation="8" result="offset-blur" />
            <feComposite operator="out" in="SourceGraphic" in2="offset-blur" result="inverse" />
            <feFlood flood-color="#000" flood-opacity=".5" result="color" />
            <feComposite operator="in" in="color" in2="inverse" result="shadow" />
            <feComposite in="shadow" in2="SourceGraphic" />
        </filter>
    </defs>
    <path fill="#1E293B" filter="url(#a)" fill-opacity="1" d="M0,192L48,181.3C96,171,192,149,288,138.7C384,128,480,128,576,149.3C672,171,768,213,864,208C960,203,1056,149,1152,144C1248,139,1344,181,1392,202.7L1440,224L1440,320L1392,320C1344,320,1248,320,1152,320C1056,320,960,320,864,320C768,320,672,320,576,320C480,320,384,320,288,320C192,320,96,320,48,320L0,320Z"></path></svg>